<svg width="22" height="22" viewBox="0 0 22 22" fill="none" xmlns="http://www.w3.org/2000/svg">
<circle cx="11" cy="11" r="11" fill="white"/>
<path d="M17.1785 7.46339L14.088 6.23169L11 5L7.9126 6.23169L4.82149 7.46339V8.89476H17.1785V7.46339ZM7.99797 9.84031C8.0398 9.84459 8.08206 9.84 8.12202 9.82684C8.16198 9.81367 8.19875 9.79222 8.22995 9.76388C8.26115 9.73553 8.28609 9.70092 8.30317 9.66228C8.32024 9.62364 8.32906 9.58182 8.32906 9.53954C8.32906 9.49726 8.32024 9.45544 8.30317 9.41679C8.28609 9.37815 8.26115 9.34354 8.22995 9.31519C8.19875 9.28685 8.16198 9.2654 8.12202 9.25224C8.08206 9.23907 8.0398 9.23448 7.99797 9.23877H6.03827C5.99643 9.23448 5.95417 9.23907 5.91421 9.25224C5.87426 9.2654 5.83749 9.28685 5.80628 9.31519C5.77508 9.34354 5.75014 9.37815 5.73307 9.41679C5.71599 9.45544 5.70717 9.49726 5.70717 9.53954C5.70717 9.58182 5.71599 9.62364 5.73307 9.66228C5.75014 9.70092 5.77508 9.73553 5.80628 9.76388C5.83749 9.79222 5.87426 9.81367 5.91421 9.82684C5.95417 9.84 5.99643 9.84459 6.03827 9.84031H6.14899V14.1357H6.03827C5.99643 14.1314 5.95417 14.136 5.91421 14.1491C5.87426 14.1623 5.83749 14.1837 5.80628 14.2121C5.77508 14.2405 5.75014 14.2751 5.73307 14.3137C5.71599 14.3524 5.70717 14.3942 5.70717 14.4364C5.70717 14.4787 5.71599 14.5206 5.73307 14.5592C5.75014 14.5979 5.77508 14.6325 5.80628 14.6608C5.83749 14.6891 5.87426 14.7106 5.91421 14.7237C5.95417 14.7369 5.99643 14.7415 6.03827 14.7372H7.99797C8.0398 14.7415 8.08206 14.7369 8.12202 14.7237C8.16198 14.7106 8.19875 14.6891 8.22995 14.6608C8.26115 14.6325 8.28609 14.5979 8.30317 14.5592C8.32024 14.5206 8.32906 14.4787 8.32906 14.4364C8.32906 14.3942 8.32024 14.3524 8.30317 14.3137C8.28609 14.2751 8.26115 14.2405 8.22995 14.2121C8.19875 14.1837 8.16198 14.1623 8.12202 14.1491C8.08206 14.136 8.0398 14.1314 7.99797 14.1357H7.88724V9.84031H7.99797ZM11.9799 9.84031C12.0217 9.84459 12.0639 9.84 12.1039 9.82684C12.1439 9.81367 12.1806 9.79222 12.2118 9.76388C12.2431 9.73553 12.268 9.70092 12.2851 9.66228C12.3021 9.62364 12.311 9.58182 12.311 9.53954C12.311 9.49726 12.3021 9.45544 12.2851 9.41679C12.268 9.37815 12.2431 9.34354 12.2118 9.31519C12.1806 9.28685 12.1439 9.2654 12.1039 9.25224C12.0639 9.23907 12.0217 9.23448 11.9799 9.23877H10.0201C9.97835 9.23448 9.93606 9.23907 9.8961 9.25224C9.85614 9.2654 9.81937 9.28685 9.78817 9.31519C9.75696 9.34354 9.73202 9.37815 9.71495 9.41679C9.69788 9.45544 9.68905 9.49726 9.68905 9.53954C9.68905 9.58182 9.69788 9.62364 9.71495 9.66228C9.73202 9.70092 9.75696 9.73553 9.78817 9.76388C9.81937 9.79222 9.85614 9.81367 9.8961 9.82684C9.93606 9.84 9.97835 9.84459 10.0201 9.84031H10.1315V14.1357H10.0201C9.97835 14.1314 9.93606 14.136 9.8961 14.1491C9.85614 14.1623 9.81937 14.1837 9.78817 14.2121C9.75696 14.2405 9.73202 14.2751 9.71495 14.3137C9.69788 14.3524 9.68905 14.3942 9.68905 14.4364C9.68905 14.4787 9.69788 14.5206 9.71495 14.5592C9.73202 14.5979 9.75696 14.6325 9.78817 14.6608C9.81937 14.6891 9.85614 14.7106 9.8961 14.7237C9.93606 14.7369 9.97835 14.7415 10.0201 14.7372H11.9799C12.0217 14.7415 12.0639 14.7369 12.1039 14.7237C12.1439 14.7106 12.1806 14.6891 12.2118 14.6608C12.2431 14.6325 12.268 14.5979 12.2851 14.5592C12.3021 14.5206 12.311 14.4787 12.311 14.4364C12.311 14.3942 12.3021 14.3524 12.2851 14.3137C12.268 14.2751 12.2431 14.2405 12.2118 14.2121C12.1806 14.1837 12.1439 14.1623 12.1039 14.1491C12.0639 14.136 12.0217 14.1314 11.9799 14.1357H11.8691V9.84031H11.9799ZM16.0254 9.84031C16.0673 9.84459 16.1095 9.84 16.1495 9.82684C16.1894 9.81367 16.2262 9.79222 16.2574 9.76388C16.2886 9.73553 16.3136 9.70092 16.3306 9.66228C16.3477 9.62364 16.3565 9.58182 16.3565 9.53954C16.3565 9.49726 16.3477 9.45544 16.3306 9.41679C16.3136 9.37815 16.2886 9.34354 16.2574 9.31519C16.2262 9.28685 16.1894 9.2654 16.1495 9.25224C16.1095 9.23907 16.0673 9.23448 16.0254 9.23877H14.0657C14.0239 9.23448 13.9817 9.23907 13.9417 9.25224C13.9017 9.2654 13.865 9.28685 13.8337 9.31519C13.8026 9.34354 13.7776 9.37815 13.7605 9.41679C13.7435 9.45544 13.7347 9.49726 13.7347 9.53954C13.7347 9.58182 13.7435 9.62364 13.7605 9.66228C13.7776 9.70092 13.8026 9.73553 13.8337 9.76388C13.865 9.79222 13.9017 9.81367 13.9417 9.82684C13.9817 9.84 14.0239 9.84459 14.0657 9.84031H14.1765V14.1357H14.0657C14.0239 14.1314 13.9817 14.136 13.9417 14.1491C13.9017 14.1623 13.865 14.1837 13.8337 14.2121C13.8026 14.2405 13.7776 14.2751 13.7605 14.3137C13.7435 14.3524 13.7347 14.3942 13.7347 14.4364C13.7347 14.4787 13.7435 14.5206 13.7605 14.5592C13.7776 14.5979 13.8026 14.6325 13.8337 14.6608C13.865 14.6891 13.9017 14.7106 13.9417 14.7237C13.9817 14.7369 14.0239 14.7415 14.0657 14.7372H16.0254C16.0673 14.7415 16.1095 14.7369 16.1495 14.7237C16.1894 14.7106 16.2262 14.6891 16.2574 14.6608C16.2886 14.6325 16.3136 14.5979 16.3306 14.5592C16.3477 14.5206 16.3565 14.4787 16.3565 14.4364C16.3565 14.3942 16.3477 14.3524 16.3306 14.3137C16.3136 14.2751 16.2886 14.2405 16.2574 14.2121C16.2262 14.1837 16.1894 14.1623 16.1495 14.1491C16.1095 14.136 16.0673 14.1314 16.0254 14.1357H15.9141V9.84031H16.0254ZM5.13759 15.8258H16.8624C16.942 15.8296 17.0197 15.8016 17.0789 15.748C17.1381 15.6945 17.1739 15.6196 17.1785 15.5397V15.3674C17.1739 15.2876 17.1382 15.2128 17.0791 15.1593C17.0201 15.1057 16.9424 15.0777 16.863 15.0813H5.13697C5.05755 15.0777 4.97991 15.1057 4.92087 15.1593C4.86183 15.2128 4.82613 15.2876 4.82149 15.3674V15.5397C4.82613 15.6195 4.86183 15.6943 4.92087 15.7478C4.97991 15.8014 5.05816 15.8294 5.13759 15.8258ZM17.6845 16.1692H4.3161C4.23661 16.1656 4.15891 16.1937 4.09976 16.2472C4.04063 16.3007 4.00479 16.3755 4 16.4554V16.7135C4.00479 16.7933 4.04054 16.868 4.09955 16.9215C4.15855 16.975 4.2361 17.0031 4.31548 16.9997H17.6845C17.764 17.0032 17.8416 16.9752 17.9006 16.9217C17.9597 16.8681 17.9954 16.7934 18 16.7135V16.4554C17.9954 16.3756 17.9597 16.3008 17.9006 16.2472C17.8416 16.1937 17.764 16.1656 17.6845 16.1692Z" fill="#336699"/>
</svg>
