<svg width="22" height="22" viewBox="0 0 22 22" fill="none" xmlns="http://www.w3.org/2000/svg">
<path d="M21.6705 13.661C20.2012 19.5539 14.2321 23.1402 8.33793 21.6707C2.44618 20.2015 -1.14051 14.2327 0.329502 8.34018C1.79814 2.44665 7.76726 -1.14 13.6597 0.32917C19.5535 1.79834 23.1399 7.76785 21.6705 13.661Z" fill="#F7931A"/>
<path d="M15.8486 9.43396C16.0676 7.97029 14.9531 7.18345 13.4291 6.65855L13.9234 4.67582L12.7164 4.37504L12.2351 6.30552C11.9178 6.22646 11.5919 6.15187 11.2681 6.07797L11.7528 4.13476L10.5465 3.83398L10.0518 5.81602C9.78911 5.75621 9.53127 5.6971 9.281 5.63488L9.28237 5.62869L7.61778 5.21309L7.29669 6.50214C7.29669 6.50214 8.19224 6.70736 8.17334 6.72008C8.6622 6.84211 8.75054 7.16557 8.73576 7.42201L8.17264 9.68077C8.20633 9.68936 8.25 9.70174 8.29813 9.72099C8.25791 9.71102 8.21494 9.70002 8.17059 9.68936L7.38125 12.8536C7.32144 13.0021 7.16984 13.2248 6.82812 13.1402C6.84015 13.1578 5.95078 12.9213 5.95078 12.9213L5.35156 14.3028L6.92231 14.6943C7.21452 14.7675 7.50089 14.8442 7.78279 14.9164L7.28329 16.9218L8.48893 17.2226L8.98363 15.2385C9.31297 15.3278 9.63269 15.4103 9.94554 15.488L9.45256 17.4629L10.6596 17.7636L11.1591 15.762C13.2173 16.1515 14.765 15.9944 15.4165 14.133C15.9415 12.6342 15.3904 11.7697 14.3075 11.206C15.0961 11.0241 15.6901 10.5054 15.8486 9.43396ZM13.0908 13.3008C12.7178 14.7995 10.1941 13.9893 9.37588 13.7861L10.0387 11.1293C10.8569 11.3335 13.4807 11.7378 13.0908 13.3008ZM13.4642 9.4123C13.1238 10.7756 11.0233 10.083 10.3419 9.91314L10.9429 7.50348C11.6242 7.6733 13.8186 7.99022 13.4642 9.4123Z" fill="white"/>
</svg>
