<svg xmlns="http://www.w3.org/2000/svg" viewBox="0 0 24 24" ><g clip-path="url(#a)"><path fill-rule="evenodd" d="M13.9 8.248a.945.945 0 0 1-.88.572h-2.254a.945.945 0 0 1-.871-.551c-.317-.709-.809-1.954-.809-2.844 0-2.227 1.332-4.15 2.153-5.125.338-.4.924-.4 1.262 0 .821.971 2.153 2.886 2.153 5.085 0 .909-.455 2.148-.753 2.863Zm-9.58.517c.1.039.209.055.317.055h2.994a1 1 0 0 0 .92-1.39L7.445 4.813a.937.937 0 0 0-.263-.358c-2.023-1.673-4.488-1.864-5.76-1.832a.794.794 0 0 0-.783.914C.941 5.574 2.275 7.983 4.32 8.765Zm15.034.055a.889.889 0 0 0 .318-.055c2.066-.79 3.407-3.242 3.69-5.293a.788.788 0 0 0-.72-.9c-1.34-.123-4.147-.047-6.244 2.28a.942.942 0 0 0-.18.302l-.864 2.317a1 1 0 0 0 .937 1.35h3.063ZM1.426 11.21a1 1 0 0 1 1-1h19.178a1 1 0 0 1 1 1v2.073a1 1 0 0 1-1 1H2.426a1 1 0 0 1-1-1V11.21Zm2.63 4.702a1 1 0 0 0-1 1v6.146a1 1 0 0 0 1 1H10.2a1 1 0 0 0 1-1v-6.146a1 1 0 0 0-1-1H4.055Zm9.774 0a1 1 0 0 0-1 1v6.146a1 1 0 0 0 1 1h6.145a1 1 0 0 0 1-1v-6.146a1 1 0 0 0-1-1H13.83Z" clip-rule="evenodd"/></g><defs><clipPath id="a"><path d="M0 0h24v24H0z"/></clipPath></defs></svg>