<svg viewBox="0 0 37 60" fill="none" xmlns="http://www.w3.org/2000/svg"><g clip-path="url(#a)"><path d="M23.84 8.422c-.77-1.082-.275-2.605.99-3.045l4.042-1.405c.88-.307 1.853.03 2.347.81l9.02 14.256a1.993 1.993 0 0 1-.323 2.513l-2.337 2.212c-.887.84-2.311.708-3.014-.28L23.84 8.423Z" fill="url(#b)"/><path d="M26.91 7.272c-.796-1.118-.24-2.69 1.089-3.077l5.225-1.522c.9-.263 1.86.13 2.308.944l7.822 14.185c.437.793.28 1.783-.384 2.41l-2.407 2.28c-.888.84-2.311.709-3.015-.279L26.91 7.272Z" fill="url(#c)"/><path d="M11.643 16.585c-.957-.75-1.158-2.088-.437-2.915l1.424-1.635c.093-.107.2-.202.316-.283l5.522-3.826c.854-.592 2.101-.338 2.799.57l9.133 11.89c.638.83.608 1.941-.07 2.602L26.827 26.4c-.675.658-1.787.669-2.609.025l-12.575-9.841Z" fill="url(#d)"/><path d="M13.961 14.222c-1.111-.87-1.168-2.482-.113-3.204l6.82-4.667c.836-.572 2.046-.34 2.751.526l8.756 10.765c.676.832.664 1.976-.03 2.652l-3.466 3.378c-.675.657-1.786.668-2.608.025l-12.11-9.475Z" fill="url(#e)"/><path d="M6.354 38.01c-.969-.175-1.708-.92-1.783-1.8l-.788-9.233a1.68 1.68 0 0 1 .272-1.07l5.361-8.168c.717-1.092 2.455-1.174 3.41-.16l13.739 14.604c.403.429.588.985.505 1.523l-.914 5.93c-.16 1.036-1.24 1.713-2.402 1.504l-17.4-3.13Z" fill="url(#f)"/><path d="M8.01 35.199c-.975-.213-1.724-1.054-1.78-2l-.432-7.214c-.02-.339.05-.668.206-.956l3.987-7.349c.527-.972 1.856-1.215 2.877-.526l17.589 11.87c.448.303.776.75.914 1.247l2.164 7.776c.384 1.379-.777 2.549-2.217 2.235L8.01 35.199Z" fill="url(#g)"/><path d="M6.893 58.998c-.988.076-1.933-.482-2.266-1.338L.882 48.023a1.698 1.698 0 0 1 .037-1.345l3.654-7.802c.365-.78 1.284-1.212 2.234-1.054l29.407 4.911c.903.15 1.623.801 1.785 1.612l2.016 10.108c.213 1.067-.602 2.035-1.79 2.126L6.892 59Z" fill="url(#h)"/><path d="M3.857 46.628a1.694 1.694 0 0 1-.096-1.406l2.41-6.346c.318-.834 1.252-1.344 2.244-1.225l29.347 3.534c1.069.128 1.877.948 1.877 1.903v9.975c0 1.02-.919 1.837-2.068 1.837H9.613c-.832 0-1.598-.434-1.956-1.11l-3.8-7.162Z" fill="url(#i)"/></g><defs><linearGradient id="b" x1="42.823" y1="22.085" x2="24.811" y2="8.732" gradientUnits="userSpaceOnUse"><stop stop-color="#AF4412"/><stop offset=".517" stop-color="#FF6000"/><stop offset="1" stop-color="#CB6329"/></linearGradient><linearGradient id="c" x1="33.192" y1="7.887" x2="50.13" y2="35.057" gradientUnits="userSpaceOnUse"><stop stop-color="#F7C30D"/><stop offset="1" stop-color="#F75D02"/></linearGradient><linearGradient id="d" x1="33.621" y1="22.985" x2="12.224" y2="16.362" gradientUnits="userSpaceOnUse"><stop stop-color="#AF4412"/><stop offset=".517" stop-color="#FF6000"/><stop offset="1" stop-color="#CB6329"/></linearGradient><linearGradient id="e" x1="22.489" y1="12.318" x2="40.426" y2="37.554" gradientUnits="userSpaceOnUse"><stop stop-color="#F7C30D"/><stop offset="1" stop-color="#F75D02"/></linearGradient><linearGradient id="f" x1="29.719" y1="32.877" x2="8.18" y2="39.909" gradientUnits="userSpaceOnUse"><stop stop-color="#AF4412"/><stop offset=".517" stop-color="#FF6000"/><stop offset="1" stop-color="#CB6329"/></linearGradient><linearGradient id="g" x1="15.691" y1="26.078" x2="42.03" y2="52.252" gradientUnits="userSpaceOnUse"><stop stop-color="#F7C30D"/><stop offset="1" stop-color="#F75D02"/></linearGradient><linearGradient id="h" x1="44.656" y1="46.599" x2="8.206" y2="52.51" gradientUnits="userSpaceOnUse"><stop stop-color="#AF4412"/><stop offset=".517" stop-color="#FF6000"/><stop offset="1" stop-color="#CB6329"/></linearGradient><linearGradient id="i" x1="16.219" y1="41.505" x2="55.779" y2="50.819" gradientUnits="userSpaceOnUse"><stop stop-color="#F7C30D"/><stop offset="1" stop-color="#F75D02"/></linearGradient><clipPath id="a"><path fill="#fff" d="M0 0h37v60H0z"/></clipPath></defs></svg>