<svg viewBox="0 0 40 40" fill="none" xmlns="http://www.w3.org/2000/svg"><path d="m4.245 14.73 16.3 10.415L20.502 33v2.5l9.438 1.774c2.805-.103 3.932-.733 4.697-3.453.512-.158-1.194-28.067-2.126-29.938C31.578 2.012 29.027.92 29.027.92S11.485 5.315 4.564 12.26l-.32 2.471Z" fill="#FFF2A6"/><path d="m29.502 30-1.87-2-1.63-.5-5.977 4.45v3.97L29.57 37l3.836-.772 1.226-3.728-2.631-2-2.5-.5Z" fill="url(#a)"/><path d="m23.062 12.906 1.569 9.593-2.5 2.25-2.11.225V32l6.11-4.502 1.5-13.5-1.5-3h-9.5l-.5 3.5 2.5 2.5-1.162-2.69.27-2.09 5.323.687Z" fill="#B84710"/><path d="M19.567 25.02 4.272 14.733l.32-2.471.821 2.618L24.63 22.5s-.5 2-2.5 2.5-2.563.018-2.563.018Z" fill="#FF8A00"/><path d="M31.631 14.132c.425 3.948.176 14.07.37 16.37l-2.5-.5-1.87-2-1.5-.501 1.5-13.535-1.5-2.965h-9.5l-.5 3.5 2.5 2.5-.5-3.5 4.44.466 1.06 2.534 1 6-8-4-2.546-4.369.968 2.999-4.705-3.214 2.759-2.62 3.524-1.759-.422-1.168 5.349-2.308 4.561 2.878-3.692-3.81 3.983-1.24 3.221.612c.323 1 1.575 5.684 2 9.631Z" fill="#FFC701"/><defs><linearGradient id="a" x1="28.297" y1="30.5" x2="20.297" y2="38.5" gradientUnits="userSpaceOnUse"><stop stop-color="#FF9901"/><stop offset="1" stop-color="#EA6111"/></linearGradient></defs></svg>