<svg viewBox="0 0 40 40" fill="none" xmlns="http://www.w3.org/2000/svg"><path d="m35.755 14.73-16.3 10.415.043 7.855v2.5l-9.438 1.774c-2.805-.103-3.932-.733-4.697-3.453-.512-.158 1.194-28.067 2.126-29.938C8.422 2.012 10.973.92 10.973.92s17.542 4.395 24.463 11.34l.32 2.471Z" fill="#FFF2A6"/><path d="m10.498 30 1.87-2 1.63-.5 5.977 4.45v3.97L10.43 37l-3.836-.772L5.367 32.5l2.631-2 2.5-.5Z" fill="url(#a)"/><path d="m16.938 12.906-1.569 9.593 2.5 2.25 2.11.225V32l-6.109-4.5-1.5-13.5 1.5-3h9.5l.5 3.5-2.5 2.5 1.162-2.69-.27-2.09-5.323.687Z" fill="#B84710"/><path d="m20.433 25.02 15.295-10.286-.32-2.471-.821 2.618-19.217 7.62s.5 2 2.5 2.5 2.563.018 2.563.018Z" fill="#FF8A00"/><path d="M8.369 14.132c-.425 3.948-.176 14.07-.37 16.37l2.5-.5 1.87-2 1.5-.501-1.5-13.535 1.5-2.965h9.5l.5 3.5-2.5 2.5.5-3.5-4.44.466-1.06 2.534-1 6 8-4 2.546-4.369-.968 2.999 4.705-3.214-2.759-2.62-3.524-1.759.422-1.168-5.349-2.308-4.561 2.878 3.692-3.81-3.983-1.24-3.221.612c-.323 1-1.575 5.684-2 9.631Z" fill="#FFC701"/><defs><linearGradient id="a" x1="11.703" y1="30.5" x2="19.703" y2="38.5" gradientUnits="userSpaceOnUse"><stop stop-color="#FF9901"/><stop offset="1" stop-color="#EA6111"/></linearGradient></defs></svg>