<svg width="50" height="27" viewBox="0 0 50 27" fill="none" xmlns="http://www.w3.org/2000/svg">
<path d="M0.00390625 11.1225L2.40189 16.6838L3.50363 17.5V20.0072L2.67036 22.1226L4.00359 27H5.5V4H50V1.98113L42.3339 1.32075L36.7746 0H32.7779L23.9476 1.09375L5.44566 0L2.40189 3.70751L0.00390625 11.1225Z" fill="#006165"/>
<path fill-rule="evenodd" clip-rule="evenodd" d="M50 2.98113L42.3049 2.32075L36.7245 1H32.7127L23.8489 2.09375L5.27687 1L2.22157 4.70751L7.31234e-09 11.5511L2.22157 16.6838L3.32749 17.5V18.5V20.0072V21.0072L2.65304 22.713L3.82934 27H5.83676V5V4H50V2.98113Z" fill="#003941"/>
</svg>