<svg width="22" height="22" viewBox="0 0 22 22" fill="none" xmlns="http://www.w3.org/2000/svg">
<circle cx="11" cy="11" r="11" fill="#687DE4"/>
<mask id="mask0_22668_73439" style="mask-type:luminance" maskUnits="userSpaceOnUse" x="5" y="2" width="12" height="18">
<path d="M16.2234 2.47461H5.77344V19.5246H16.2234V2.47461Z" fill="white"/>
</mask>
<g mask="url(#mask0_22668_73439)">
<path d="M10.9969 2.47461L10.8828 2.86315V14.1368L10.9969 14.251L16.2203 11.1577L10.9969 2.47461Z" fill="#C3CDF3"/>
<path d="M10.9969 2.47461L5.77344 11.1577L10.9969 14.251V8.77905V2.47461Z" fill="white"/>
<path d="M10.9979 15.242L10.9336 15.3207V19.3365L10.9979 19.5247L16.2245 12.1504L10.9979 15.242Z" fill="#C3CDF3"/>
<path d="M10.9969 19.5247V15.242L5.77344 12.1504L10.9969 19.5247Z" fill="white"/>
<path d="M11 14.2512L16.2233 11.1579L11 8.7793V14.2512Z" fill="#8697E8"/>
<path d="M5.77344 11.1579L10.9969 14.2512V8.7793L5.77344 11.1579Z" fill="#C3CDF3"/>
</g>
</svg>
