<svg width="32" height="32" viewBox="0 0 32 32" fill="none" xmlns="http://www.w3.org/2000/svg">
<path d="M6.22368 27.4138C5.39809 27.3453 4.6733 27.9591 4.60484 28.7847C4.53637 29.6102 5.15014 30.335 5.97573 30.4035L6.22368 27.4138ZM13.0422 19.8116C12.7712 23.0793 12.0354 25.0118 11.0153 26.0915C10.0666 27.0957 8.62406 27.6128 6.22368 27.4138L5.97573 30.4035C8.90188 30.6462 11.3978 30.0552 13.1961 28.1517C14.923 26.3237 15.7426 23.5487 16.032 20.0595L13.0422 19.8116Z" fill="url(#paint0_linear_20462_65820)"/>
<path d="M15.1579 16.0198C15.1579 16.0198 19.3045 8.93392 22.0293 7.15934C24.7542 5.38477 28.7778 6.50298 29.9594 11.16C31.141 15.817 28.8585 19.1149 26.0383 20.456C23.2182 21.797 15.1579 16.0198 15.1579 16.0198Z" fill="#82FFAB"/>
<path d="M15.7455 15.8167C15.7455 15.8167 19.4508 10.0883 21.1406 8.49921C22.8305 6.9101 27.1505 6.42807 28.8869 9.77146C30.6234 13.1148 29.4875 17.8383 26.9169 19.1189C24.3462 20.3995 15.7455 15.8167 15.7455 15.8167Z" fill="#51E983"/>
<path opacity="0.3" d="M15.5323 13.3681C15.5323 13.3681 19.6224 21.1101 23.4756 21.0987C27.3289 21.0872 29.2576 17.93 29.6646 16.9161C30.0716 15.9022 18.5315 14.1211 15.5323 13.3681Z" fill="#245742"/>
<path d="M16.5137 14.5664C16.5137 14.5664 20.4968 11.3615 21.8711 8.17267C23.2454 4.98385 20.7126 3.89073 17.8778 2.96787C15.043 2.045 16.3558 12.0441 16.5137 14.5664Z" fill="#245742"/>
<path d="M16.8225 14.7759C16.8225 14.7759 15.8315 23.3231 12.261 25.1197C8.69036 26.9163 5.93652 25.1814 3.74261 21.8401C1.54869 18.4989 1.83913 14.7494 4.31608 13.0201C6.79302 11.2908 16.8225 14.7759 16.8225 14.7759Z" fill="#3FFF76"/>
<path d="M16.2785 15.066C16.2785 15.066 15.3091 23.0314 12.0825 24.7367C8.85598 26.4419 6.39619 24.8522 4.45455 21.7622C2.51291 18.6721 2.8085 15.1791 5.05121 13.5466C7.29393 11.9141 16.2785 15.066 16.2785 15.066Z" fill="url(#paint1_linear_20462_65820)"/>
<path d="M16.4668 13.8066C16.4668 13.8066 14.0618 16.1945 12.1499 19.1074C10.2379 22.0202 11.2923 24.39 13.9062 25.7807C16.52 27.1713 16.1743 16.3216 16.4668 13.8066Z" fill="#245742"/>
<path d="M17.201 13.9565C16.8039 14.5403 16.1205 14.8426 15.4216 14.7419C12.8766 14.3751 6.77754 13.2397 5.06962 10.6102C2.89358 7.25991 4.86261 4.39058 8.42224 2.57718C9.83998 1.85493 12.2133 1.70611 14.1283 1.78783C14.615 1.80861 13.973 4.21506 14.4523 4.28008C14.9356 4.34564 15.6146 1.82218 16.0739 1.92955C17.8666 2.3486 19.8768 3.19789 20.6901 4.13443C22.3145 6.00487 18.7326 11.7052 17.201 13.9565Z" fill="url(#paint2_linear_20462_65820)"/>
<path d="M16.5764 14.3649C16.5764 14.3649 15.6504 12.2612 15.4094 12.22C15.317 12.2042 15.9998 14.2687 15.878 14.2467C13.7512 13.862 7.39618 12.5237 5.69196 10.011C3.63555 6.97902 5.25109 4.82694 8.54796 3.2294C9.94745 2.55126 11.8653 2.23174 13.7564 2.25167C14.2498 2.25687 13.9916 5.08337 14.4716 5.13445C14.7965 5.16901 15.8658 2.4158 16.1771 2.47111C17.7962 2.75876 19.1914 3.32557 19.9406 4.15668C21.8627 6.2888 16.5764 14.3649 16.5764 14.3649Z" fill="url(#paint3_linear_20462_65820)"/>
<path opacity="0.6" d="M16.2772 14.644C16.2772 14.644 7.18158 13.4352 5.12517 10.4033C3.06876 7.37132 5.99791 4.46441 8.54793 3.22877C11.098 1.99313 15.8619 12.1078 16.2772 14.644Z" fill="#389057"/>
<path d="M16.3715 14.5364C16.3715 14.5364 15.6387 15.3273 14.7011 16.7506C14.5042 17.0495 16.3245 19.2629 16.137 19.5725C15.9494 19.8821 13.5359 18.9262 13.3552 19.2565C12.2379 21.2982 11.4587 23.2561 12.0206 24.9637C13.2358 28.6565 16.4619 29.2909 20.4688 28.4066C24.4758 27.5223 27.02 24.6658 26.5312 21.7614C26.0424 18.8571 16.3715 14.5364 16.3715 14.5364Z" fill="#60F786"/>
<path d="M16.5449 15.111C16.5449 15.111 15.9199 15.5141 14.9725 16.992C14.8544 17.176 16.3893 19.5043 16.2701 19.7003C16.158 19.8847 13.7372 19.3049 13.6266 19.4978C12.4893 21.4811 11.9172 23.1413 12.4284 24.8132C13.4666 28.2082 16.3775 28.7465 20.0213 27.8695C23.6651 26.9925 26.0174 24.3144 25.6239 21.6374C25.2303 18.9603 16.5449 15.111 16.5449 15.111Z" fill="#5FF66A"/>
<path d="M16.5448 15.1116C16.5448 15.1116 15.8702 15.615 14.9723 16.9927C14.853 17.1756 16.404 19.2005 16.293 19.615C16.1819 20.0294 13.741 19.3025 13.6264 19.4984C12.4458 21.517 11.9011 23.09 12.4282 24.8138C13.4664 28.2088 17.2028 28.5484 20.0211 27.8701C22.8395 27.1918 18.3356 17.1574 16.5448 15.1116Z" fill="#4BBF6A"/>
<defs>
<linearGradient id="paint0_linear_20462_65820" x1="8.00421" y1="25.5015" x2="7.24761" y2="29.988" gradientUnits="userSpaceOnUse">
<stop stop-color="#4BBF6A"/>
<stop offset="1" stop-color="#5FF66A"/>
</linearGradient>
<linearGradient id="paint1_linear_20462_65820" x1="14.9804" y1="20.8181" x2="2.95058" y2="17.5947" gradientUnits="userSpaceOnUse">
<stop stop-color="#257B40"/>
<stop offset="1" stop-color="#51FF7F" stop-opacity="0.3"/>
</linearGradient>
<linearGradient id="paint2_linear_20462_65820" x1="10.7772" y1="13.733" x2="19.0685" y2="4.2742" gradientUnits="userSpaceOnUse">
<stop stop-color="#60F786"/>
<stop offset="1" stop-color="#41D566"/>
</linearGradient>
<linearGradient id="paint3_linear_20462_65820" x1="10.8503" y1="13.0484" x2="13.863" y2="1.80475" gradientUnits="userSpaceOnUse">
<stop stop-color="#359A50"/>
<stop offset="1" stop-color="#4BBF6A" stop-opacity="0"/>
</linearGradient>
</defs>
</svg>
