<svg version="1.1" id="Layer_1" xmlns="http://www.w3.org/2000/svg" x="0" y="0" viewBox="0 0 24 24" style="enable-background:new 0 0 24 24" xml:space="preserve"><style>.st3,.st4{fill:#4eccd3}.st4{fill-rule:evenodd;clip-rule:evenodd}</style><linearGradient id="SVGID_1_" gradientUnits="userSpaceOnUse" x1="12" y1="8" x2="12" y2="20" gradientTransform="matrix(1 0 0 -1 0 26)"><stop offset="0" style="stop-color:#2e9185"/><stop offset="1" style="stop-color:#1db8c1"/></linearGradient><path d="M3 9.7c0-.9.5-1.7 1.4-2C6.2 7 9.5 6 12 6s5.8 1 7.6 1.7c.9.3 1.4 1.1 1.4 2v4.5c0 .9-.5 1.7-1.4 2-1.8.8-5.1 1.8-7.6 1.8s-5.8-1-7.6-1.7c-.9-.3-1.4-1.1-1.4-2V9.7zm1.6-.3v5.2h3.3v-.9H5.7V9.4H4.6zm5.2 5.1V9.4H8.7v5.2l1.1-.1zm1.8-5.1 1.3 3.9 1.3-3.9h1.2l-1.8 5.2h-1.4l-1.8-5.2h1.2zm4.4 0v5.2h3.5v-.9h-2.4v-1.2h2.2v-.9h-2.2v-1.2h2.4v-1H16z" style="fill-rule:evenodd;clip-rule:evenodd;fill:url(#SVGID_1_)"/><linearGradient id="SVGID_00000167395885252235698290000006643787731971769277_" gradientUnits="userSpaceOnUse" x1="12" y1="18.5" x2="12" y2="23" gradientTransform="matrix(1 0 0 -1 0 26)"><stop offset="0" style="stop-color:#2e9185"/><stop offset="1" style="stop-color:#1db8c1"/></linearGradient><path style="fill:url(#SVGID_00000167395885252235698290000006643787731971769277_)" d="M19.5 6.7c0-.3-.2-.5-.4-.6-1.8-.7-4.9-1.6-7.1-1.6s-5.3 1-7.1 1.6c-.2.1-.4.3-.4.6-.5.2-.9.3-1.5.8v-.8c0-.9.5-1.7 1.4-2C6.2 4 9.5 3 12 3s5.8 1 7.6 1.7c.9.3 1.4 1.1 1.4 2v.8c-.6-.5-.9-.6-1.5-.8z"/><linearGradient id="SVGID_00000130604492066666775330000000469485760047824260_" gradientUnits="userSpaceOnUse" x1="12" y1="5" x2="12" y2="9.5" gradientTransform="matrix(1 0 0 -1 0 26)"><stop offset="0" style="stop-color:#2e9185"/><stop offset="1" style="stop-color:#1db8c1"/></linearGradient><path style="fill:url(#SVGID_00000130604492066666775330000000469485760047824260_)" d="M19.5 17.3c0 .3-.2.5-.4.6-1.8.7-4.9 1.6-7.1 1.6s-5.6-1-7.1-1.6c-.2-.1-.4-.3-.4-.6-.5-.2-.9-.3-1.5-.8v.8c0 .9.5 1.7 1.4 2C6.2 20 9.5 21 12 21s5.8-1 7.6-1.7c.9-.3 1.4-1.1 1.4-2v-.8c-.6.5-.9.6-1.5.8z"/><path class="st3" d="M19.1 17.9c-1.8.6-4.9 1.6-7.1 1.6s-5.3-.9-7.1-1.6c-.2-.1-.4-.3-.4-.6-.6-.2-.9-.3-1.5-.8v.8c0 .3.1.6.2.9.1 0 .1.1.2.1C5.2 19 8.5 20 11 20s5.8-1 7.6-1.7c.6-.2 1-.6 1.2-1.1-.1 0-.2.1-.3.1 0 .3-.2.5-.4.6z"/><path class="st4" d="m11.9 10.4 1 2.9.3-1-.6-1.9zM20.5 10.4h-3.4v1.2h1v-.2h2.4zM20.3 12.6h-2.2v-.1h-1v1.2h1v-.2h2.2zM9.8 14.5v.1h-.1v1h1.1v-5l-.1-.2h-.9zM13.9 14.3l-.1-.3-.2.6h-.7l.3 1h1.4l1.4-4v-1.2h-.8zM18.1 14.7v-.1H17v1h3.5v-.9h-2.4zM6.7 14.6H5.6v1h3.3v-.9H6.7z"/><path class="st4" d="M4 15.3v-4.6c0-.9.5-1.7 1.4-2C7.2 8 10.5 7 13 7s5.8 1 7.6 1.7c.1 0 .1.1.2.1-.2-.5-.6-.9-1.2-1.1C17.8 7 14.5 6 12 6S6.2 7 4.4 7.7C3.5 8 3 8.8 3 9.7v4.6c0 .8.4 1.6 1.2 1.9-.1-.3-.2-.6-.2-.9z"/><path class="st4" d="M5.7 10.4h1v3.3h-1z"/><path class="st3" d="M5.4 5.7C7.2 5 10.5 4 13 4s5.8 1 7.6 1.7c.1 0 .1.1.2.1-.2-.5-.6-.9-1.2-1.1C17.8 4 14.5 3 12 3S6.2 4 4.4 4.7C3.5 5 3 5.8 3 6.7v.8c.5-.4.8-.5 1.2-.7.2-.5.6-.9 1.2-1.1z"/></svg>