<svg width="22" height="22" viewBox="0 0 22 22" fill="none" xmlns="http://www.w3.org/2000/svg">
<circle cx="11" cy="11" r="11" fill="white"/>
<path d="M13.2842 6.88477H8.70312V15.1151H13.2842V6.88477Z" fill="#FF5A00"/>
<path d="M9.0069 11.0006C9.0069 9.32847 9.793 7.84438 10.9993 6.88547C10.1115 6.18747 8.99166 5.76562 7.77016 5.76562C4.87651 5.76562 2.53516 8.10697 2.53516 11.0006C2.53516 13.8943 4.87651 16.2356 7.77016 16.2356C8.99166 16.2356 10.1115 15.8138 10.9993 15.1158C9.79131 14.1704 9.0069 12.6728 9.0069 11.0006Z" fill="#EB001B"/>
<path d="M19.4641 11.0006C19.4641 13.8943 17.1227 16.2356 14.2291 16.2356C13.0076 16.2356 11.8877 15.8138 11 15.1158C12.2215 14.1552 12.9923 12.6728 12.9923 11.0006C12.9923 9.32847 12.2063 7.84438 11 6.88547C11.8861 6.18747 13.0059 5.76562 14.2274 5.76562C17.1227 5.76562 19.4641 8.12222 19.4641 11.0006Z" fill="#F79E1B"/>
</svg>
