<svg  width="19" height="21" viewBox="0 0 19 21" xmlns="http://www.w3.org/2000/svg"><g fill='#00272c'><path  d="M5.90031 0.370846C5.70085 0.412194 5.56611 0.511383 5.56611 0.624354C5.5729 5.78131 5.56359 17.2967 5.56612 19.4016C5.56612 19.6406 6.13691 19.7705 6.48798 19.5972L12.5526 16.4975C12.7629 16.39 12.7628 16.2165 12.5526 16.109L6.78695 13.1568L12.5525 10.2099C12.7628 10.1025 12.7628 9.92892 12.5525 9.82146L6.78695 6.86932L12.5525 3.92243C12.7628 3.81497 12.7628 3.6414 12.5525 3.53394L6.48798 0.428688C6.3181 0.341903 6.0571 0.33081 5.90031 0.370846Z"/><path  d="M0.629576 2.16921L0.629577 5.28138L3.67406 3.7253L0.629576 2.16921Z"/><path  d="M0.629575 8.45673L0.629577 11.5689L3.67405 10.0128L0.629575 8.45673Z"/><path  d="M0.629533 14.7443L0.629533 17.8564L3.67401 16.3004L0.629533 14.7443Z"/><path  d="M14.3372 5.00965L10.7115 6.86279L14.3372 8.71593L17.9629 6.86279L14.3372 5.00965Z"/><path  d="M14.3372 11.3097L10.7115 13.1628L14.3372 15.016L17.9629 13.1628L14.3372 11.3097Z"/></g><path  fill-rule="evenodd" clip-rule="evenodd" d="M12.8139 3.73193L11.9144 4.19453C10.278 3.37216 6.87177 1.66061 6.33753 1.39333C5.80328 1.12605 5.6008 1.38476 5.56635 1.54753V0.622263C5.56635 0.252185 6.08047 0.313919 6.33753 0.391046L12.8139 3.73193ZM14.3816 4.96547L10.6297 6.84851L11.6317 7.38131L14.3816 5.96782L16.9515 7.38131L17.9795 6.84851L14.3816 4.96547ZM6.82544 6.84851V7.8697L11.9144 10.5425L12.428 10.2598C12.6421 10.1656 12.942 9.92055 12.428 9.69439C12.1237 9.56052 10.6909 8.82515 9.2915 8.1069L9.29141 8.10686L9.29112 8.1067L9.29072 8.1065L9.28999 8.10613L9.28965 8.10595C8.3255 7.61111 7.37743 7.12452 6.82544 6.84851ZM6.82544 14.1405V13.0936C7.63698 13.5118 9.25861 14.379 10.5554 15.0725C11.49 15.5723 12.2559 15.9818 12.428 16.068C12.8389 16.2736 12.702 16.4278 12.5822 16.4792L11.9144 16.8133L6.82544 14.1405ZM10.6297 13.0936L14.3816 11.2105L17.9795 13.0936L16.9515 13.6264L14.3816 12.2129L11.6317 13.6264L10.6297 13.0936ZM0.630859 2.1162V3.1975L2.66431 4.21413L3.68096 3.71387L0.630859 2.1162ZM0.630859 8.39376V9.47505L2.66431 10.4917L3.68096 9.99142L0.630859 8.39376ZM0.630859 15.7529V14.6716L3.68096 16.2692L2.66431 16.7695L0.630859 15.7529Z" fill='#011717'/><path  fill-rule="evenodd" clip-rule="evenodd" d="M3.681 4.71436V3.71387L0.630859 5.26309V6.27976L3.681 4.71436ZM3.681 11.008V10.0075L0.630859 11.5568V12.5734L3.681 11.008ZM3.681 16.285V17.2855L0.630859 18.8509V17.8343L3.681 16.285ZM7.82764 7.35566L6.82568 6.86738L12.7108 3.83483V4.86277L7.82764 7.35566ZM10.6543 7.84401V6.86745L14.3551 8.71786L17.9788 6.86745V7.84401L14.3551 9.74587L10.6543 7.84401ZM10.6548 14.1149V13.1383L14.3556 14.9887L17.9793 13.1383V14.1149L14.3556 16.0167L10.6548 14.1149ZM6.82568 13.1352L7.82764 13.6235L12.7108 11.1306V10.1027L6.82568 13.1352ZM12.7123 17.3946L7.82914 19.8875C6.54124 20.6126 5.89622 20.9708 5.57508 20.3475L5.57608 19.3992C5.94188 19.7476 6.15369 19.7919 6.82719 19.3992L12.7123 16.3667V17.3946Z" fill='#00535c'/></svg>