<svg viewBox="0 0 49 48" fill="none" xmlns="http://www.w3.org/2000/svg"><path d="M17.775 2.808a4.268 4.268 0 0 1 3.602-.663l16.412 4.382a4.206 4.206 0 0 1 2.77 2.366l6.76 15.393a4.117 4.117 0 0 1-.145 3.613l-7.982 14.813a4.218 4.218 0 0 1-2.954 2.14l-16.713 3.077a4.263 4.263 0 0 1-3.537-.944L3.128 36.01a4.142 4.142 0 0 1-1.457-3.318L2.35 15.93a4.151 4.151 0 0 1 1.72-3.192l13.705-9.929Z" fill="#743E00"/><path d="M17.775.808a4.268 4.268 0 0 1 3.602-.663l16.412 4.382a4.206 4.206 0 0 1 2.77 2.366l6.76 15.393a4.117 4.117 0 0 1-.145 3.613l-7.982 14.813a4.218 4.218 0 0 1-2.954 2.14l-16.713 3.077a4.263 4.263 0 0 1-3.537-.944L3.128 34.01a4.142 4.142 0 0 1-1.457-3.318L2.35 13.93a4.151 4.151 0 0 1 1.72-3.192L17.775.808Z" fill="#FFAB49"/><path fill-rule="evenodd" clip-rule="evenodd" d="M21.377.145a4.268 4.268 0 0 0-3.602.663L4.07 10.737a4.151 4.151 0 0 0-1.72 3.192l-.68 16.763a4.11 4.11 0 0 0 .017.577l.662-16.34a4.151 4.151 0 0 1 1.72-3.192l13.705-9.929a4.268 4.268 0 0 1 3.602-.663l16.412 4.382a4.206 4.206 0 0 1 2.77 2.366l6.76 15.393c.164.373.27.762.319 1.157a4.117 4.117 0 0 0-.318-2.157L40.56 6.893a4.206 4.206 0 0 0-2.772-2.366L21.377.145Z" fill="#FFD39F"/><path d="M19.258 6.766a4.041 4.041 0 0 1 3.413-.629l11.361 3.037a3.987 3.987 0 0 1 2.626 2.243l4.68 10.665a3.907 3.907 0 0 1-.138 3.426l-5.526 10.263a3.997 3.997 0 0 1-2.799 2.03l-11.57 2.132a4.037 4.037 0 0 1-3.351-.896l-8.902-7.604a3.929 3.929 0 0 1-1.38-3.146l.469-11.614a3.938 3.938 0 0 1 1.63-3.028l9.487-6.879Z" fill="#330C0C"/><path fill-rule="evenodd" clip-rule="evenodd" d="m22.93 5.171 11.36 3.037a4.987 4.987 0 0 1 3.284 2.807l4.68 10.665a4.908 4.908 0 0 1-.174 4.302l-5.526 10.263a4.997 4.997 0 0 1-3.498 2.539l-11.57 2.132a5.037 5.037 0 0 1-4.182-1.118l-8.902-7.604a4.93 4.93 0 0 1-1.73-3.947l.47-11.615a4.937 4.937 0 0 1 2.042-3.796l9.487-6.88a5.041 5.041 0 0 1 4.258-.785Zm-.259.966a4.041 4.041 0 0 0-3.413.63l-9.487 6.878a3.938 3.938 0 0 0-1.63 3.028l-.47 11.614a3.929 3.929 0 0 0 1.38 3.146l8.903 7.604a4.037 4.037 0 0 0 3.351.896l11.57-2.133a3.997 3.997 0 0 0 2.799-2.029L41.2 25.508a3.907 3.907 0 0 0 .138-3.426l-4.68-10.665a3.986 3.986 0 0 0-2.626-2.243l-11.36-3.037Z" fill="#6C3B26"/></svg>