<svg version="1.1" id="Layer_1" xmlns="http://www.w3.org/2000/svg" xmlns:xlink="http://www.w3.org/1999/xlink" x="0px" y="0px" viewBox="0 0 24 24" style="enable-background:new 0 0 24 24;" xml:space="preserve">
<style type="text/css">
	.st0{fill:url(#SVGID_1_);}
	.st1{fill:#4ECCD3;}
</style>
<linearGradient id="SVGID_1_" gradientUnits="userSpaceOnUse" x1="12" y1="21" x2="12" y2="3">
	<stop offset="0" style="stop-color:#2E9185"/>
	<stop offset="1" style="stop-color:#1DB8C1"/>
</linearGradient>
<path class="st0" d="M19.1,17.5C20.3,16,21,14.1,21,12c0-2-0.6-3.8-1.7-5.2c0,0,0-0.1-0.1-0.1l0,0C17.6,4.4,15,3,12,3  c-1.1,0-2.2,0.2-3.1,0.6l0,0l0,0C5.4,4.8,3,8.1,3,12c0,5,4,9,9,9c2.8,0,5.4-1.3,7-3.4L19.1,17.5L19.1,17.5z M15.2,11.6l2.5-0.8l2,2  c-0.1,1.3-0.6,2.5-1.3,3.5l-2.8,0.1L14.4,14L15.2,11.6z M18.1,7.2c-0.1,0.5-0.4,1.6-0.7,2.5l-2.6,0.8l-2.2-1.6V6.3L15.3,5  C16.4,5.5,17.3,6.2,18.1,7.2z M8.8,4.9l2.6,1.4v2.5l-2.2,1.6L6.6,9.7C6.3,8.8,6,7.7,5.9,7.2C6.7,6.2,7.7,5.4,8.8,4.9z M8.3,16.5  l-2.7-0.1c-0.7-1-1.1-2.2-1.3-3.4l2-2l2.5,0.7L9.6,14L8.3,16.5z M11.1,19.7l-1.7-2.7l1.1-2.1h3l1,2.1l-1.7,2.7c-0.2,0-0.5,0-0.8,0  C11.7,19.8,11.4,19.8,11.1,19.7z"/>
<g>
	<path class="st1" d="M18,7c0,0,0.1,0.1,0.1,0.1c-0.1,0.5-0.4,1.6-0.7,2.5l-2.6,0.8l-1.2-0.9v0.3l2.2,1.6l2-0.6l0,0l0.7-0.2   c0.2-0.9,0.5-2,0.7-2.5C18.8,7.7,18.4,7.4,18,7z"/>
	<path class="st1" d="M13,20.8c0.3,0,0.5,0,0.8,0l1.7-2.7l-1-2.1H14l0.5,1.1l-1.7,2.7c-0.2,0-0.5,0-0.8,0c-0.2,0-0.4,0-0.5,0l0.6,1   C12.4,20.8,12.7,20.8,13,20.8z"/>
	<path class="st1" d="M18.7,11.8L18.7,11.8l1,1c-0.1,1.3-0.6,2.5-1.3,3.5l-2.3,0.1l0.5,1l2.6-0.1c0.6-0.8,1.1-1.7,1.4-2.7   c0.1-0.3,0.1-0.5,0.1-0.8L18.7,11.8z"/>
	<path class="st1" d="M4,13c0-2.1,0.7-4,1.9-5.6c0-0.1,0-0.2-0.1-0.2c0.8-1,1.8-1.8,2.9-2.3L8.9,5c0.3-0.2,0.6-0.3,0.9-0.4l0,0l0,0   c1-0.4,2-0.6,3.1-0.6c2.2,0,4.2,0.8,5.8,2.1C17.1,4.2,14.7,3,12,3c-1.1,0-2.2,0.2-3.1,0.6l0,0l0,0C5.4,4.8,3,8.1,3,12   c0,2.7,1.2,5.2,3.2,6.8C4.8,17.3,4,15.2,4,13z"/>
	<path class="st1" d="M11.4,8.8l-2.2,1.6L7.4,9.9c0.1,0.3,0.1,0.5,0.2,0.8l2.6,0.7l2.2-1.6V7.3l-1-0.5V8.8z"/>
	<path class="st1" d="M9.3,17.5l0.2-0.3l-0.1-0.1l1.1-2.1h0.1l-0.8-2.3l-0.7-0.2L9.6,14l-1.3,2.5L6,16.4c0.2,0.3,0.4,0.7,0.6,1   L9.3,17.5z"/>
</g>
</svg>