<?xml version="1.0" encoding="UTF-8" standalone="no"?><svg xmlns="http://www.w3.org/2000/svg" xmlns:xlink="http://www.w3.org/1999/xlink"><symbol id="age" xmlns="http://www.w3.org/2000/svg" viewBox="0 0 34 34"><path fill-rule="evenodd" clip-rule="evenodd" d="M17 32.3c8.201 0 14.85-6.85 14.85-15.3 0-8.45-6.649-15.3-14.85-15.3S2.15 8.55 2.15 17c0 8.45 6.649 15.3 14.85 15.3Zm0 1.7c9.113 0 16.5-7.611 16.5-17S26.113 0 17 0 .5 7.611.5 17 7.887 34 17 34Z"></path><path d="M10.332 12.036H8.367c-.023.606-.853 1.638-2.092 1.638v1.668c1.065 0 1.758-.407 1.965-.737h.09v7.36h2.002v-9.93ZM16.228 22.1c2.168 0 3.737-1.197 3.747-2.807-.01-1.241-.933-2.254-2.093-2.453v-.068c1.009-.213 1.725-1.115 1.734-2.2-.009-1.538-1.442-2.672-3.388-2.672-1.96 0-3.392 1.134-3.383 2.671-.01 1.086.707 1.988 1.734 2.201v.068c-1.178.199-2.102 1.212-2.092 2.453-.01 1.61 1.555 2.807 3.741 2.807Zm0-1.542c-.975 0-1.63-.586-1.62-1.43-.01-.858.678-1.478 1.62-1.478.929 0 1.612.62 1.621 1.478-.009.844-.66 1.43-1.62 1.43Zm0-4.436c-.82 0-1.404-.547-1.394-1.333-.01-.77.565-1.309 1.394-1.309.816 0 1.386.538 1.395 1.31-.01.785-.589 1.332-1.395 1.332Zm11.497.078h-2.318v-2.303h-1.579V16.2H21.51v1.6h2.318v2.303h1.579V17.8h2.318v-1.6Z"></path></symbol><symbol id="bonus" viewBox="0 0 24 24" xmlns="http://www.w3.org/2000/svg"><g clip-path="url(#clip0_527_64325)"><path fill-rule="evenodd" clip-rule="evenodd" d="M13.9 8.248a.945.945 0 0 1-.88.572h-2.254a.945.945 0 0 1-.871-.551c-.317-.709-.809-1.954-.809-2.844 0-2.227 1.332-4.15 2.153-5.125.338-.4.924-.4 1.262 0 .821.971 2.153 2.886 2.153 5.085 0 .909-.455 2.148-.753 2.863Zm-9.58.517c.1.039.209.055.317.055h2.994a1 1 0 0 0 .92-1.39L7.445 4.813a.937.937 0 0 0-.263-.358c-2.023-1.673-4.488-1.864-5.76-1.832a.794.794 0 0 0-.783.914C.941 5.574 2.275 7.983 4.32 8.765Zm15.034.055a.889.889 0 0 0 .318-.055c2.066-.79 3.407-3.242 3.69-5.293a.788.788 0 0 0-.72-.9c-1.34-.123-4.147-.047-6.244 2.28a.942.942 0 0 0-.18.302l-.864 2.317a1 1 0 0 0 .937 1.35h3.063ZM1.426 11.21a1 1 0 0 1 1-1h19.178a1 1 0 0 1 1 1v2.073a1 1 0 0 1-1 1H2.426a1 1 0 0 1-1-1V11.21Zm2.63 4.702a1 1 0 0 0-1 1v6.146a1 1 0 0 0 1 1H10.2a1 1 0 0 0 1-1v-6.146a1 1 0 0 0-1-1H4.055Zm9.774 0a1 1 0 0 0-1 1v6.146a1 1 0 0 0 1 1h6.145a1 1 0 0 0 1-1v-6.146a1 1 0 0 0-1-1H13.83Z"></path></g><defs><clipPath><path d="M0 0h24v24H0z"></path></clipPath></defs></symbol><symbol id="cashcrab" viewBox="0 0 24 24" xmlns="http://www.w3.org/2000/svg"><path d="M21.65 6.169c-.42.58-.823 1.142-1.233 1.699-.189.256-.374.517-.59.748-.338.36-.665.404-1.113.199-.179-.082-.365-.149-.54-.236-.218-.109-.36-.07-.475.155-.211.413-.449.813-.663 1.224-.283.543-.785.737-1.361.516-.306-.117-.612-.236-.924-.333-.084-.026-.218-.012-.283.041-.848.687-1.669 1.409-2.208 2.368-.235.417-.422.893-.488 1.362-.111.79.167 1.006.841 1.2.626.18 1.181-.014 1.66-.437.093-.081.182-.168.285-.232.38-.235.716-.122.892.33.144-.14.283-.26.406-.395.528-.574 1.088-1.107 1.816-1.431.09-.04.18-.08.274-.107.396-.112.662.056.73.457.049.283.18.37.407.2.213-.16.382-.392.53-.618.172-.264.277-.573.452-.835.397-.597.985-.606 1.435-.046.283.35.413.756.44 1.195a3.975 3.975 0 0 1-.24 1.673c-.517 1.376-1.473 2.407-2.6 3.302-1.506 1.197-3.245 1.953-5.05 2.574-1.487.51-3.009.873-4.582.98-1.85.125-3.624-.157-5.234-1.117-1.035-.618-1.962-1.364-2.567-2.435-.565-1-.82-2.088-.89-3.218-.106-1.685.092-3.327.8-4.885A12.148 12.148 0 0 1 4.073 6.5C5.678 4.89 7.53 3.633 9.645 2.774c2-.812 4.086-1.285 6.253-1.274 1.938.01 3.814.4 5.584 1.206.524.239 1.023.54 1.357 1.022.172.247.325.542.367.832.063.436.05.89.014 1.33-.026.333-.239.567-.591.631-.352.064-.672.018-.907-.286-.015-.018-.035-.032-.073-.066Z"></path></symbol><symbol id="challenges" viewBox="0 0 24 24" xmlns="http://www.w3.org/2000/svg"><path d="m13.652 8.063 1.744.254c.252.036.309.213.128.392L14.262 9.94a1 1 0 0 0-.254.785l.298 1.739c.043.253-.107.362-.333.242l-1.56-.82a.994.994 0 0 0-.824 0l-1.56.82c-.226.12-.377.01-.333-.242l.298-1.739a.999.999 0 0 0-.255-.785L8.478 8.71c-.184-.179-.126-.356.128-.392l1.742-.254a.999.999 0 0 0 .667-.485l.78-1.582c.112-.23.298-.23.411 0l.78 1.582c.113.23.414.448.666.485Z"></path><path fill-rule="evenodd" clip-rule="evenodd" d="M20.312 10.239c-.196-.448-.196-1.178 0-1.627l.61-1.395a1.026 1.026 0 0 0-.41-1.26l-1.31-.768c-.422-.247-.85-.839-.954-1.315l-.325-1.488a1.023 1.023 0 0 0-1.07-.779l-1.512.151c-.484.049-1.18-.177-1.544-.502L12.662.243a1.022 1.022 0 0 0-1.323 0l-1.135 1.012c-.364.325-1.06.55-1.543.503l-1.513-.15a1.024 1.024 0 0 0-1.07.78l-.324 1.486c-.105.477-.533 1.07-.954 1.315l-1.311.768a1.027 1.027 0 0 0-.41 1.262l.61 1.393c.195.447.196 1.177 0 1.626l-.61 1.395a1.025 1.025 0 0 0 .41 1.26l1.31.767c.42.248.85.84.955 1.315l.324 1.488c.105.477.586.828 1.071.779l1.51-.151c.486-.048 1.18.178 1.543.502l1.137 1.012c.363.325.96.325 1.323 0l1.135-1.01c.363-.325 1.057-.551 1.542-.504l1.513.151c.485.048.966-.303 1.07-.78l.324-1.486c.104-.476.534-1.069.953-1.314l1.313-.77c.42-.247.605-.813.409-1.26l-.61-1.393ZM12 14.925a5.496 5.496 0 0 1-5.492-5.5A5.498 5.498 0 0 1 12 3.923a5.496 5.496 0 0 1 5.492 5.501c0 3.039-2.458 5.5-5.492 5.5Z"></path><path d="m7.24 18.17 1.556-.153c.271 0 .646.147.788.272l1.075.96-1.57 4.32a.653.653 0 0 1-1.214.035l-.74-1.71-1.662.835a.653.653 0 0 1-.728-.098.656.656 0 0 1-.18-.712l1.471-4.049a1.905 1.905 0 0 0 1.204.3Zm9.702.01c.367 0 .718-.117 1.02-.308l1.472 4.049a.655.655 0 0 1-.908.81l-1.662-.835-.74 1.71a.653.653 0 0 1-1.215-.036l-1.569-4.32 1.075-.96c.141-.124.511-.27.826-.27l1.518.15c.061.006.122.01.183.01Z"></path></symbol><symbol id="decor-left" viewBox="0 0 24 24" xmlns="http://www.w3.org/2000/svg"><path d="M19.066 12.08c.202 3.171.156 6.075-3.244 7.968-2.251 1.25-4.484 1.14-6.478.414-1.103-.405-2.518-.57-3.446-1.443-2.344-2.196-2.94-8.234.67-10.963 2.28-1.718 7.508.744 7.775 3.611.055.644.202 1.47-.625 1.783-.883.33-1.884.45-2.61-.23-.974-.91-1.976-1.507-3.262-.827-.616.322-.662 1.121-.432 1.645.514 1.176 1.296 2.16 2.674 2.5 1.617.404 3.17-.11 4.76-.24.257-.018.643-.257.707-.477.81-2.591 1.388-5.357-.045-7.756-1.085-1.82-2.867-3.308-5.385-3.097a9.86 9.86 0 0 1-1.379 0c-.523-.018-1.167 0-1.13-.762.028-.588.57-.634 1.02-.708 1.58-.239 3.152-.661 4.77-.432 1.065.156 2.131.34 2.59 1.544.102.276.295.625.534.726 3.253 1.37 2.426 4.245 2.536 6.745z"></path></symbol><symbol id="decor-right" viewBox="0 0 24 24" xmlns="http://www.w3.org/2000/svg"><path d="M4.566 12.001c-.2 3.143-.154 6.02 3.216 7.897 2.231 1.239 4.445 1.13 6.421.41 1.093-.4 2.496-.565 3.416-1.43 2.323-2.177 2.915-8.161-.665-10.866-2.259-1.704-7.442.737-7.706 3.58-.054.637-.2 1.457.62 1.766.874.328 1.867.447 2.587-.227.965-.902 1.958-1.494 3.233-.82.61.319.656 1.111.428 1.63-.51 1.166-1.284 2.14-2.65 2.478-1.604.4-3.143-.11-4.719-.237-.255-.018-.637-.255-.701-.474-.802-2.568-1.375-5.31.045-7.687 1.075-1.804 2.842-3.28 5.338-3.07.455.037.91.027 1.366 0 .52-.018 1.157 0 1.12-.756-.027-.583-.564-.628-1.01-.701-1.567-.237-3.125-.656-4.728-.428-1.056.155-2.113.337-2.568 1.53-.1.273-.292.62-.529.72C3.856 6.672 4.676 9.523 4.566 12z"></path></symbol><symbol id="games" viewBox="0 0 24 24" xmlns="http://www.w3.org/2000/svg"><path fill-rule="evenodd" clip-rule="evenodd" d="M21.347 3.792c1.485 0 2.653 1.253 2.653 2.77v10.64c-.158 1.352-1.295 2.408-2.621 2.408H2.653C1.168 19.61 0 18.357 0 16.84V6.562c0-1.55 1.2-2.77 2.653-2.77h2.842C6.695 1.55 9.158 0 12 0s5.305 1.55 6.505 3.792h2.842ZM2.368 14.035c0 .297.253.56.537.56h5.18V7.672h-5.18c-.284 0-.537.263-.537.56v5.804Zm6.758.56h5.684V7.672H9.127v6.925Zm11.906 0c.284 0 .536-.23.536-.56V8.231c0-.296-.252-.56-.536-.56h-5.18v6.925h5.18Zm-18.028 6.08a1 1 0 0 0-1 1V23a1 1 0 0 0 1 1h17.994a1 1 0 0 0 1-1v-1.326a1 1 0 0 0-1-1H3.004Z"></path></symbol><symbol id="help-centre" viewBox="0 0 20 20" xmlns="http://www.w3.org/2000/svg"><path d="M7.517 12.119a.496.496 0 0 1-.323-.124.447.447 0 0 1-.15-.32c0-.083.009-.15.026-.198a5.03 5.03 0 0 1 .869-1.556c.414-.494.927-1.02 1.54-1.58.513-.495.877-.873 1.092-1.137.232-.263.348-.518.348-.765s-.083-.436-.248-.568c-.15-.148-.348-.222-.596-.222-.431 0-.737.082-.92.247-.181.148-.355.37-.52.666a1.69 1.69 0 0 1-.349.47c-.115.098-.298.148-.546.148H6.585l-.346-.618-.809.618H3.12a.568.568 0 0 1-.446-.198.894.894 0 0 1-.174-.568c.033-.889.797-1.67.944-2.617.146-.948 1.49-1.564 2.682-2.124s2.657-.84 4.395-.84c1.755 0 3.154.255 4.197.766 1.044.51 2.133.903 2.161 1.827.028.924.621 1.367.621 2.025 0 .626-.116 1.202-.348 1.729a5.727 5.727 0 0 1-.844 1.383c-.315.395-1.145.75-1.291 1.407-.147.658-.72.741-1.019 1.087a7.8 7.8 0 0 1-.273.345 5.622 5.622 0 0 1-.472.593c-.082.082-.223.124-.422.124H7.517Zm.248 5.63a.646.646 0 0 1-.472-.198.64.64 0 0 1-.199-.469v-3.309a.64.64 0 0 1 .199-.47.646.646 0 0 1 .472-.197h4.545c.182 0 .339.066.471.198a.64.64 0 0 1 .2.47v3.308a.64.64 0 0 1-.2.47.647.647 0 0 1-.471.197H7.765Zm5.043 1.418.12-.796-5.697-.154 5.577.95Z"></path></symbol><symbol id="home" viewBox="0 0 24 24" xmlns="http://www.w3.org/2000/svg"><path fill-rule="evenodd" clip-rule="evenodd" d="M1.111 8.586a2.992 2.992 0 0 0-.043.284c-.14 1.133.05 2.385.237 3.244a.946.946 0 0 0 1.293.678c1.166-.466 3.05-1.35 4.093-2.536.308.948.824 1.854 1.236 2.488a.946.946 0 0 0 1.45.178c.785-.72 1.948-1.904 2.623-3.15.675 1.246 1.838 2.43 2.624 3.15a.946.946 0 0 0 1.45-.178c.41-.634.927-1.54 1.235-2.488 1.044 1.186 2.927 2.07 4.093 2.536a.946.946 0 0 0 1.293-.678c.282-1.292.57-3.476-.273-4.806-.213-.336-.514-.642-.867-.919-1.183-1.189-2.93-2.216-4.44-3.105-.682-.401-1.315-.774-1.828-1.12C13.215.76 13.025.76 12.03.76h-.069c-.995 0-1.185 0-3.257 1.403-.512.347-1.146.72-1.828 1.121-1.523.896-3.287 1.934-4.47 3.136a3.699 3.699 0 0 0-.828.888c-.236.372-.383.81-.467 1.278Zm10.89 8.04c-2.323.057-2.628 4.104-2.469 6.616H3.648a1 1 0 0 1-1-1l1-8.523a13.429 13.429 0 0 0 2.558-1.477c.298.951 1.408 2.297 2.216 2.297 1.528 0 2.862-1.583 3.58-2.707.717 1.124 2.052 2.707 3.579 2.707.809 0 1.918-1.346 2.216-2.297.629.459 1.468 1 2.558 1.477l1 8.523a1 1 0 0 1-1 1H14.47c.16-2.512-.146-6.56-2.47-6.617Z"></path></symbol><symbol id="jackpots" viewBox="0 0 24 24" xmlns="http://www.w3.org/2000/svg"><g clip-path="url(#clip0_622_48301)"><path fill-rule="evenodd" clip-rule="evenodd" d="M9.837 10.446C6.797 8.972 5 5.69 5 5.69 2.297 1.5 14.633-1.515 15.26.989c.625 2.498-1.001 6.57-2.026 8.791l.039.017c1.376-2.023 4.063-5.073 6.525-5.825 3-.915 5.15 8.422 3 9-2.522.881-5.913.877-8.348.078l-.038.089c.18.08.379.165.592.257 2.03.871 5.39 2.315 6.294 4.576 1.874 3.747-9 7.742-10.085 5-.804-2.033-.983-5.22-.548-7.279 0 0-1.715 4.22-5.186 6.938A.442.442 0 0 1 5 21.889c3.275-2.7 4-4.889 4.815-6.482-1.612 1.294-4.032 3.236-6.017 3.565-3.01.5-6.002-11.5-1.5-11 2.922.324 4.08 1.072 5.441 1.685.735.331 1.383.623 2.098.79Zm1.46-.974S9.107 8.468 8 7.001c-.711-.762.874-2.351 1.701-1.617 0 0 .655.592.828.803l.768-1.186c.36-.993 2.703-1.196 1.975.688-.599 1.486-.813 2.328-1.975 3.783ZM6 10.5c-1.522-.605-2 .798-2 1.35s1.548 1.01 1.798 1.122c.23.104-2.298 1.529-.565 2.721 1.456 1.002 4.582-2.962 4.582-2.962S7.522 11.105 6 10.5ZM18.5 12c1.87-.318 1.336-2.131 0-2.5C20 7.675 18.078 7 17 8s-3 3.5-3 3.5c1.464.59 2.63.818 4.5.5Zm-6 6.5c.222 1.592 2.565.969 2.41-.58 1.34 0 1.891.535 2.59-.42C18.788 15.739 13 14 13 14c-.5 1.693-.722 2.908-.5 4.5Z"></path></g><defs><clipPath><path d="M0 0h24v24H0z"></path></clipPath></defs></symbol><symbol id="live-casino" viewBox="0 0 24 24" xmlns="http://www.w3.org/2000/svg"><path fill-rule="evenodd" clip-rule="evenodd" d="M17.702 15.768c.81.287 2.124.803 2.69 1.602.378.532.61 1.216.608 2.064 0 .147-.007 2.261-.02 2.418a.56.56 0 0 1-.108.275 1.04 1.04 0 0 1-.188.197 2.778 2.778 0 0 1-.55.335c-.446.216-1.065.433-1.84.631-1.55.395-3.722.71-6.294.71-3.166 0-5.72-.475-7.264-.994-.516-.174-.919-.351-1.21-.532a1.368 1.368 0 0 1-.398-.347.556.556 0 0 1-.107-.275C3.007 21.694 3 19.58 3 19.432c0-.636.128-1.18.352-1.637a3.31 3.31 0 0 1 .905-1.12c.725-.586 1.032-.701 1.786-.907.021-.538-.065-1.772-.159-2.759C5.423 8.165 4.578-.7 13.15.044c5.743.268 5.115 7.843 4.714 12.677-.086 1.036-.162 1.947-.162 2.632v.415Zm-9.307.004a57.643 57.643 0 0 0 3.617 4.527s1.67-1.742 3.598-4.531c-.618-.245-1.526-.652-1.523-1.393v-1.511c1.257-1.316 1.658-3.523 1.658-5.29-3.997.152-6.32-2.277-6.32-2.277-1.5 2.473-1.633 5.346.489 7.567v1.51c0 .727-.917 1.163-1.52 1.398Z"></path></symbol><symbol id="shop" viewBox="0 0 24 24" xmlns="http://www.w3.org/2000/svg"><path fill-rule="evenodd" clip-rule="evenodd" d="M2.694 1.865a.5.5 0 0 1 .5-.5h17.587a.5.5 0 0 1 .5.5v1.373a.5.5 0 0 1-.5.5H3.194a.5.5 0 0 1-.5-.5V1.865ZM1 9.658l1.57-4.056a.5.5 0 0 1 .467-.32H20.94a.5.5 0 0 1 .466.318L23 9.658c0 1.363-1.325 2.332-2.764 2.332-1.467 0-2.75-.896-2.75-2.062 0 1.166-1.285 2.062-2.75 2.062-1.474 0-2.73-1.039-2.736-2.036-.005.997-1.262 2.036-2.736 2.036-1.465 0-2.75-.896-2.75-2.062 0 1.166-1.283 2.062-2.75 2.062C2.324 11.99 1 11.02 1 9.658Zm18.094 3.761-.03 5.442a1 1 0 0 1-1 .994H5.44a.5.5 0 0 1-.5-.497l-.034-5.939c-.02 0-.213.033-.43.072-.215.04-.547.071-.736.071-.19 0-.52-.032-.737-.07a114.376 114.376 0 0 0-.405-.073c-.005 0-.01 5.384-.011 8.08A1.5 1.5 0 0 0 4.087 23h15.827a1.5 1.5 0 0 0 1.5-1.5c-.002-2.697-.007-8.081-.012-8.08-.006 0-.189.032-.405.071-.216.04-.547.071-.736.071-.19 0-.52-.032-.737-.07a9.8 9.8 0 0 0-.43-.073ZM6.45 16.386a.5.5 0 0 1 .5-.5h2.143a.5.5 0 0 1 .5.5v1.555a.5.5 0 0 1-.5.5H6.95a.5.5 0 0 1-.5-.5v-1.555Zm3.98 0a.5.5 0 0 1 .5-.5h2.143a.5.5 0 0 1 .5.5v1.555a.5.5 0 0 1-.5.5H10.93a.5.5 0 0 1-.5-.5v-1.555Zm3.977 0a.5.5 0 0 1 .5-.5h2.143a.5.5 0 0 1 .5.5v1.555a.5.5 0 0 1-.5.5h-2.143a.5.5 0 0 1-.5-.5v-1.555Z"></path></symbol><symbol id="sidebar-closed" viewBox="0 0 25 24" xmlns="http://www.w3.org/2000/svg"><path clip-rule="evenodd" d="M24.11 10.453c-.336 2.132-4.295 10.23-5.73 11.05-.251.144-1.843.638-2.058.1-.933-2.333 1.54-5.999-.426-7.965-.58-.58-2.23.015-3.03.015-1.319 0-2.567-.114-4.725 0-1.765 0-4.996.334-7.46-.114-.81-.147-.455-2.149-.455-2.149s1.629-2.626 3.561-2.626c3.554 0 6.454-.392 9.98.121.951.138 2.478-.286 2.478-.967.756-1.228.333-4.277.077-7.01.196-.442 2.028-.276 2.334 0 .485.435.656 1.22.957 1.8.146.282 2.345 3.124 2.537 3.45.97 1.654 1.657 2.368 1.96 4.295zM12.866 1.748c-.86-.766-4.098-.542-5.272-.577-1.168-.036-5.61-.734-6.452.024l-.027.025c.03.964-.997 2.21 0 3.337.972 1.1 4.455.625 5.206.669 3.489.205 2.684.607 6.026 0 .82-.15.98-3.068.519-3.478zm.555 19.216c-.245.441-4.785.015-5.28 0-3.385-.102-2.934.314-6.319.41-.885.024-1.495.041-1.596-1.326l-.011-.143c-.071-.944-.452-1.372.01-2.205.463-.832 12.914-1.056 12.914 0 .415.681.761 2.402.282 3.264z" fill-rule="evenodd"></path></symbol><symbol id="slots" viewBox="0 0 24 24" xmlns="http://www.w3.org/2000/svg"><g clip-path="url(#clip0_5355_59024)"><path d="m11.294 7.835.706-.37.706.37v1.341h9.882c.78 0 1.412.633 1.412 1.412v12c0 .78-.632 1.412-1.412 1.412H1.412C.632 24 0 23.368 0 22.588v-12c0-.78.632-1.412 1.412-1.412h9.882v-1.34Zm-2.47 5.224v7.059c0 .39.316.706.705.706h4.942c.39 0 .706-.317.706-.706v-7.06a.706.706 0 0 0-.706-.705H9.529a.706.706 0 0 0-.705.706Zm-5.648-.706a1.41 1.41 0 0 0-1.411 1.412v5.647c0 .78.632 1.412 1.411 1.412H7.06c.39 0 .706-.317.706-.706v-7.06a.706.706 0 0 0-.706-.705H3.176Zm17.648 0H16.94a.706.706 0 0 0-.706.706v7.059c0 .39.316.706.706.706h3.883c.78 0 1.411-.633 1.411-1.412v-5.647c0-.78-.632-1.412-1.412-1.412Zm-10.589 1.412h3.53v5.647h-3.53v-5.647Zm-3.882 0v5.647H3.529a.353.353 0 0 1-.353-.353v-4.941c0-.195.158-.353.353-.353h2.824Zm11.294 0h2.824c.195 0 .352.158.352.353v4.94a.353.353 0 0 1-.352.354h-2.824v-5.647Zm-7.186-6.688a.706.706 0 0 1-1.024-.744l.294-1.713-1.245-1.214a.706.706 0 0 1 .391-1.204l1.72-.25.77-1.559a.706.706 0 0 1 1.266 0l.77 1.56 1.72.25c.579.083.81.795.39 1.203L14.27 4.62l.294 1.713a.706.706 0 0 1-1.024.744L12 6.268l-1.539.809Z"></path></g><defs><clipPath><path d="M0 0h24v24H0z"></path></clipPath></defs></symbol><symbol id="sports-live-sports" viewBox="0 0 24 24" xmlns="http://www.w3.org/2000/svg"><path fill-rule="evenodd" clip-rule="evenodd" d="M0 8.997c0-1.21.725-2.3 1.863-2.712C4.318 5.398 8.71 3.998 12.013 4c3.293.002 7.674 1.398 10.125 2.285C23.275 6.697 24 7.787 24 8.996v6.008c0 1.209-.725 2.3-1.862 2.71-2.45.888-6.832 2.284-10.126 2.286-3.3.002-7.694-1.398-10.15-2.285C.726 17.303 0 16.213 0 15.003V8.997Zm2.14-.524v6.92h4.43v-1.206H3.603V8.473H2.14Zm6.862 6.92v-6.92H7.539v6.92h1.463Zm2.454-6.92 1.673 5.258h.064l1.676-5.258h1.622l-2.386 6.92H12.22l-2.39-6.92h1.626Zm5.867 0v6.92H22v-1.206h-3.213v-1.652h2.96v-1.207h-2.96V9.68h3.2V8.473h-4.663Z"></path><path d="M22 4.997c0-.415-.24-.722-.543-.831C18.994 3.274 14.914 2 12.012 2c-2.91-.001-7.001 1.274-9.469 2.166-.302.11-.543.417-.543.831C1.321 5.223.74 5.342 0 6V4.997c0-1.21.725-2.3 1.863-2.712C4.318 1.398 8.71-.002 12.013 0c3.293.002 7.674 1.398 10.125 2.285C23.275 2.697 24 3.787 24 4.997V6c-.738-.648-1.184-.815-2-1.003Zm0 14.006c0 .415-.24.722-.543.831-2.463.892-6.543 2.165-9.445 2.166-2.91.001-7.001-1.274-9.469-2.166-.302-.11-.543-.417-.543-.831-.679-.226-1.26-.345-2-1.003v1.003c0 1.21.725 2.3 1.863 2.712 2.455.887 6.848 2.287 10.15 2.285 3.293-.002 7.674-1.398 10.125-2.285C23.275 21.303 24 20.213 24 19.003V18c-.738.648-1.184.815-2 1.003Z"></path></symbol><symbol id="sports-sportsbook" viewBox="0 0 24 24" xmlns="http://www.w3.org/2000/svg"><path d="M21.488 19.333A11.936 11.936 0 0 0 24 12c0-2.61-.84-5.025-2.26-6.996a1.491 1.491 0 0 0-.08-.123l-.005.003C19.468 1.924 15.955 0 12 0c-1.466 0-2.87.265-4.17.748L7.827.746l-.002.005C3.26 2.45 0 6.85 0 12c0 6.616 5.383 12 12 12 3.795 0 7.182-1.773 9.383-4.532l.109-.002-.004-.133Zm-5.23-7.87 3.38-1.037 2.668 2.72a10.306 10.306 0 0 1-1.755 4.713l-3.77.093-1.546-3.343 1.022-3.147Zm3.85-5.92a391.03 391.03 0 0 1-.9 3.31L15.74 9.918 12.814 7.79V4.462l3.612-1.84a10.43 10.43 0 0 1 3.682 2.921ZM7.732 2.551l3.454 1.894v3.346L8.288 9.897 4.77 8.979a358.24 358.24 0 0 1-.92-3.384 10.436 10.436 0 0 1 3.88-3.044Zm-.68 15.401-3.605-.096a10.306 10.306 0 0 1-1.738-4.594l2.653-2.707 3.373.88 1.047 3.224-1.73 3.293Zm3.725 4.343L8.48 18.737l1.5-2.855h4.05l1.31 2.833-2.328 3.605a10.23 10.23 0 0 1-2.235-.025Z"></path></symbol><symbol id="sport-tournament" viewBox="0 0 24 24" xmlns="http://www.w3.org/2000/svg"><g clip-path="url(#clip0_3860_68280)"><path d="M2.743 2.626V2.19c0-.75-.624-1.375-1.372-1.375A1.384 1.384 0 0 0 0 2.189v20.436C0 23.375.623 24 1.371 24s1.372-.625 1.372-1.375v-5.687c7.106 3.75 14.213-6.562 21.257-.875V1.751c-7.044-5.687-14.15 4.625-21.257.875Zm0 13.125v-3.813c1.62.875 3.304 1 4.925.688v-4.25c-1.621.25-3.304.125-4.925-.75v-3.75c1.62.875 3.304 1 4.925.688v3.812c1.683-.25 3.366-.937 5.049-1.625v4.25c-1.683.687-3.366 1.312-5.05 1.625v3.812c-1.62.25-3.303.188-4.924-.687ZM12.717 11c1.683-.688 3.366-1.312 5.05-1.625V5.189c-1.684.25-3.367.937-5.05 1.625V2.939c1.683-.688 3.366-1.313 5.05-1.625v3.812c1.682-.25 3.366-.125 5.049.813v4.25c-1.683-.938-3.367-1.063-5.05-.813v3.812c-1.683.25-3.366.938-5.05 1.625v-3.812Z"></path></g><defs><clipPath><path d="M0 0h24v24H0z"></path></clipPath></defs></symbol><symbol id="sports-virtuals" viewBox="0 0 24 24" xmlns="http://www.w3.org/2000/svg"><g clip-path="url(#clip0_621_48213)"><path fill-rule="evenodd" clip-rule="evenodd" d="M3.515 3.515a12 12 0 1 1 16.97 16.972A12 12 0 0 1 3.516 3.515ZM15.28 20.213c.161.09.306.207.427.347a9.334 9.334 0 0 0 4.946-5.067l-1.146-2.56a1.335 1.335 0 0 1 0-1.107l1.333-2.853a9.333 9.333 0 0 0-5.053-5.453c-.12.178-.28.324-.467.427l-2.6 1.333c-.187.106-.399.16-.614.16a1.334 1.334 0 0 1-.613-.16L8.906 3.947a1.2 1.2 0 0 1-.506-.494 9.44 9.44 0 0 0-5.107 5.334l1.334 2.986c.16.352.16.755 0 1.107L3.4 15.613a9.333 9.333 0 0 0 5.013 5 1.33 1.33 0 0 1 .454-.4l2.586-1.333c.385-.2.842-.2 1.227 0l2.6 1.333ZM9.1 14.31a1.31 1.31 0 0 0 1.958 1.13l3.827-2.186a1.31 1.31 0 0 0 .005-2.27l-3.847-2.221a1.31 1.31 0 0 0-1.963 1.14l.02 4.407Z"></path></g><defs><clipPath><path d="M0 0h24v24H0z"></path></clipPath></defs></symbol><symbol id="tournament" viewBox="0 0 24 24" xmlns="http://www.w3.org/2000/svg"><g><path d="M20.956 3.602h-1.264c.018-.376.038-.751.038-1.136 0-.376-.143-.751-.4-1.026a1.326 1.326 0 0 0-.97-.44H5.64c-.371 0-.723.165-.98.44-.247.275-.399.65-.39 1.026 0 .385.02.76.039 1.136H3.044C1.922 3.602 1 4.482 1 5.572v1.347c0 3.335 2.653 6.074 6.037 6.358.954 2.442 2.177 3.55 3.537 3.99l-.704 3.9H8.065c-.526 0-.95.41-.95.916s.424.917.95.917h7.87c.525 0 .95-.41.95-.917 0-.506-.425-.916-.95-.916H14.13l-.704-3.9c1.36-.374 2.655-1.782 3.68-4.219C20.5 12.16 23 9.173 23 5.627v-.055c0-1.09-.922-1.97-2.044-1.97ZM2.901 6.919V5.572c0-.073.067-.138.143-.138h1.417c.247 2.163.76 4.105 1.454 5.736-1.759-.66-3.014-2.318-3.014-4.251ZM21.1 5.627c0 2.043-1.103 3.848-2.758 4.902.57-1.494.98-3.216 1.198-5.095h1.417c.076 0 .143.065.143.138v.055Z"></path></g></symbol><symbol id="vip" viewBox="0 0 24 24" xmlns="http://www.w3.org/2000/svg"><g clip-path="url(#clip0_527_64357)"><path fill-rule="evenodd" clip-rule="evenodd" d="M3.2 2.624.438 6.767l-.014.026c-.435.764-.684 1.2.005 2.213l10.108 11.656c1.002 1.108 1.924 1.108 2.926 0L23.571 9.006c.69-1.012.44-1.45.005-2.213l-.015-.026-2.76-4.143a2.904 2.904 0 0 0-2.23-1.046H5.43c-.86 0-1.677.383-2.23 1.046Zm5.249 4.551-.247-4.551-1.666 4.551-4.48.623 4.516.68 4.436 9.8-2.54-9.8h7.065l-2.53 9.8 4.425-9.8 4.515-.68-4.479-.623-1.666-4.551-.247 4.551H8.449Z"></path></g><defs><clipPath><path d="M0 0h24v24H0z"></path></clipPath></defs></symbol></svg>