<svg width="22" height="22" viewBox="0 0 22 22" fill="none" xmlns="http://www.w3.org/2000/svg">
<circle cx="11" cy="11" r="11" fill="#53AE94"/>
<path d="M12.3577 9.53392V7.89756H16.0997V5.4043H5.9102V7.89756H9.65262V9.5326C6.61112 9.6723 4.32422 10.2746 4.32422 10.9962C4.32422 11.7178 6.61222 12.3202 9.65262 12.4608V17.7023H12.3586V12.4603C15.3946 12.3202 17.6769 11.7183 17.6769 10.9973C17.6769 10.2764 15.3946 9.6745 12.3586 9.53436M12.3586 12.0164V12.0151C12.2823 12.0199 11.89 12.0434 11.0166 12.0434C10.3183 12.0434 9.82708 12.0236 9.65394 12.0146V12.0168C6.96686 11.8978 4.96112 11.4299 4.96112 10.87C4.96112 10.3101 6.96708 9.8428 9.65394 9.72356V11.5506C9.82994 11.5627 10.3333 11.5924 11.0281 11.5924C11.8625 11.5924 12.2821 11.5577 12.3591 11.5506V9.72356C15.0409 9.84302 17.042 10.3114 17.042 10.8693C17.042 11.4272 15.0395 11.8956 12.3586 12.0151" fill="white"/>
</svg>
