<svg fill="none" height="32" viewBox="0 0 49 32" width="49" xmlns="http://www.w3.org/2000/svg"><path d="m49 21.8308-3-2.3489v-5.4819l.7967-2.5-.7967-11.5h-1l-.4081 9-2.2019 4-1.89 5 2.5 6-7 3.5-5.5-3h-7l-2.5 4.1103-7.6218 1.9773-13.3782.4124v1h15.2143 3.6722 5.5083 20.6052l1.7967-3.3897z" fill="#003840"/><path d="m44.8955 9.74326.1102-9.08408-1.1962 9.08408-3.6903 8.24844 1.9536 5.8609-5.8607 3.1475-5.1012-3.1475-7.706.6512-2.9304 3.6901-7.4882 2.4963 8.2487-1.4109 2.9298-4.1243h5.7533l6.294 3.0389 7.5974-3.6901c-.8318-1.9898-2.5172-6.0779-2.604-6.5121-.0869-.4341 2.4238-5.6798 3.69-8.24844z" fill="#005151"/></svg>