<svg fill="none" height="55" viewBox="0 0 65 55" width="65" xmlns="http://www.w3.org/2000/svg"><path d="m28.3103 13.0667-12.3103-8.0667 36.2069 1.46667 5.7931 6.60003-1 7.9333 3 7v26.5h-1l-1-24-4-3-1-5-2.9655-4.5 2.1724-2-2.1724-5.1333-9.4138-2.20003z" fill="#002022"/><path d="m65 16.936-3.2375 4.8921-2.6401 1.4688 2.6401 2.3517-1.1707 23.3514h-1.5912l-.4778-21.0695-4.0228-2.2819-1-4.6486-2.4592-4.064 4.7841-3.5266-4.7841-4.80002-10.2857-1.63072-11.9096 3.31914-16.1877-6.22336-12.6578-1.07444v-1h15.3557l7.6443 1 5.8455-1h22.1953l8.4592 1 2.2625 3.97866v6.43074z" fill="#003840"/><path d="m23 3.92725-17-2h9l8 1 5.5-1 13-1.500004 9.5 1.000004 8.5 1.5 2.5 4v6.16405s1.8333 2.8359 3 3.8359l-4.5-3v-6.49995l-2-3-8-1.5h-20z" fill="#005151"/></svg>