<svg fill="none" height="32" viewBox="0 0 49 32" width="49" xmlns="http://www.w3.org/2000/svg"><path d="m0 24 .5-4.5 1.22871-.5.77129-3.5-.77129-.6012 1.27129-14.8988h1l.5 11.5 2 1 1.5 2.3988-2 2.1012v3.8308l.5 2.1692 4 1.5 1.5 3.1103 6 .3897 2.5-2 9 1 5.5 3.5 14 .5v1h-16l-3.5-1-5.3694 1h-11.1306l-9.5-.5-1.5-4.5z" fill="#003840"/><path d="m4.55859 11.4209-.5-9v9.5l2 1 1 2-1.5 1.5.5 7 4.50001 1.5 1.5 3 6 1 2.5-2 9 .5 4.7613 2.6738-4.7613-3.1738-9-1-2.5 2-5.5-.5-1.5-3-4.50001-1.5-.5-6 2-2-1.5-2.5z" fill="#005151"/></svg>