<svg width="75" height="54" viewBox="0 0 75 54" fill="none" xmlns="http://www.w3.org/2000/svg">
<path opacity="0.5" d="M16 19.4286L17 14.5L11 8.5L7.95652 15.3214L3 17.7857L6.30435 23.5L13.7391 26.8214L7 32.5L6.30435 49L11.5 34L16.5 26L10.5 22L11 20L16 19.4286Z" fill="#002022"/>
<path d="M58 5.5L40.5 12.5L15.5 8L11 11.5L9 9L14.5 5L40 9C45.3333 7.33333 56.1 4 56.5 4C56.9 4 66.3333 4.66667 71 5L58 5.5Z" fill="#002022"/>
<path d="M0 17.8427L3.59726 26.264L6.53061 26.7319L6.86373 30L4 34.5L6 54H7L6.86373 42.1204L9 33.5L14 26.7319L6.86373 23L8.16327 18.3906L13.5 17.8427L14.5 14.5L10.5 10L15 6L40.1717 10.357L57.5 5L75 4.99551V4L63.5 3L55.1603 1H49.1649L35.9184 2.65625L8.16327 1L3.59726 6.61423L0 17.8427Z" fill="#003840"/>
<path d="M1.5 17.5L3.64397 26.2266L0 18L3 6.5L8.5 0L35.5 3L48.5 1H55.5L64 3.5L55.5 2H49L35.5 4.5L9.5 2L5 7.5L1.5 17.5Z" fill="#005151"/>
</svg>
