<svg version="1.1" id="Layer_1" xmlns="http://www.w3.org/2000/svg" x="0" y="0" viewBox="0 0 24 24" style="enable-background:new 0 0 24 24" xml:space="preserve"><style>.st2{fill-rule:evenodd;clip-rule:evenodd;fill:#4eccd3}</style><linearGradient id="SVGID_1_" gradientUnits="userSpaceOnUse" x1="12" y1="5" x2="12" y2="23" gradientTransform="matrix(1 0 0 -1 0 26)"><stop offset="0" style="stop-color:#2e9185"/><stop offset="1" style="stop-color:#1db8c1"/></linearGradient><path d="M18.4 5.6C16.7 3.9 14.4 3 12 3s-4.7.9-6.4 2.6S3 9.6 3 12s.9 4.7 2.6 6.4c1.7 1.7 4 2.6 6.4 2.6s4.7-.9 6.4-2.6c1.7-1.7 2.6-4 2.6-6.4s-.9-4.7-2.6-6.4zm-3.6 12.8-.3-.3-2-1c-.3-.1-.6-.1-.9 0l-1.9 1c-.1.1-.3.2-.3.3-1.7-.7-3-2.1-3.8-3.8l.9-2.1c.1-.3.1-.6 0-.8l-1-2.2c.7-1.8 2.1-3.2 3.8-4 .1.2.2.4.4.5l1.9 1c.1.1.3.1.5.1s.3 0 .5-.1l1.9-1c.1-.1.3-.2.3-.3 1.8.8 3.1 2.3 3.8 4.1l-1 2.1c-.1.3-.1.6 0 .8l.9 1.9c-.7 1.7-2 3.1-3.7 3.8z" style="fill-rule:evenodd;clip-rule:evenodd;fill:url(#SVGID_1_)"/><linearGradient id="SVGID_00000114794145123464799340000013589668133802608526_" gradientUnits="userSpaceOnUse" x1="12.262" y1="11.29" x2="12.262" y2="16.562" gradientTransform="matrix(1 0 0 -1 0 26)"><stop offset="0" style="stop-color:#2e9185"/><stop offset="1" style="stop-color:#1db8c1"/></linearGradient><path style="fill-rule:evenodd;clip-rule:evenodd;fill:url(#SVGID_00000114794145123464799340000013589668133802608526_)" d="M9.8 13.7c0 .8.8 1.2 1.5.8l2.9-1.6c.7-.4.7-1.3 0-1.7l-2.9-1.7c-.7-.4-1.5.1-1.5.9v3.3z"/><path class="st2" d="M19.6 10.8c-.5-1.2-1.2-2.3-2.2-3.1.5.6.9 1.4 1.2 2.1l-1 2.1c-.1.3-.1.6 0 .8l.9 1.9c-.7 1.7-2 3.1-3.7 3.8l-.3-.3-2-1c-.3-.1-.6-.1-.9 0l-1.9 1c-.1.1-.3.2-.3.3-.6-.3-1.2-.6-1.7-1 .7.9 1.6 1.6 2.7 2 0-.1.2-.2.3-.3l1.9-1c.3-.1.6-.1.9 0l2 1 .3.3c1.7-.7 3-2.1 3.7-3.8l-.9-1.9c-.1-.2-.1-.5 0-.8l1-2.1zM4 13c0-2.4.9-4.7 2.6-6.4C8.3 4.9 10.6 4 13 4c2.2 0 4.2.7 5.9 2.1-.2-.2-.3-.4-.5-.5C16.7 3.9 14.4 3 12 3s-4.7.9-6.4 2.6C3.9 7.3 3 9.6 3 12s.9 4.7 2.6 6.4l.5.5C4.7 17.2 4 15.2 4 13z"/><path class="st2" d="M10.8 11.4c0-.8.8-1.3 1.5-.9l2.4 1.4c0-.3-.2-.5-.5-.7l-2.9-1.7c-.7-.4-1.5.1-1.5.9v3.3c0 .6.5 1 1 1v-3.3z"/></svg>