<svg width="22" height="22" viewBox="0 0 22 22" fill="none" xmlns="http://www.w3.org/2000/svg">
<circle cx="11" cy="11" r="11" fill="white"/>
<path fill-rule="evenodd" clip-rule="evenodd" d="M7.99172 14L9.28256 8H10.8441L9.55329 14H7.99172ZM5.38179 12.0838L6.99548 8.00001H8.62554L6.11194 14H4.47192L3.23485 9.21162C3.22329 9.09906 3.18332 8.99144 3.11879 8.89913C3.05426 8.80683 2.96736 8.73296 2.86647 8.68467C2.37892 8.45134 1.86486 8.27988 1.33594 8.17418L1.37246 8.00001H4.01268C4.18415 7.99895 4.35037 8.05993 4.4815 8.17201C4.61263 8.28409 4.70007 8.43993 4.72812 8.61152L5.38179 12.0838ZM12.7997 9.71376C12.8051 9.50585 13.0116 9.28446 13.4637 9.22779C13.9928 9.17959 14.5255 9.26927 15.0072 9.48761L15.2813 8.25639C14.8125 8.08832 14.3171 8.00154 13.8175 8C12.2703 8 11.182 8.78837 11.1733 9.9179C11.1632 10.7536 11.9507 11.2194 12.5429 11.4976C13.153 11.7818 13.3575 11.9646 13.3546 12.2185C13.3503 12.6078 12.8675 12.7803 12.4186 12.7866C11.8596 12.7985 11.3066 12.6724 10.8113 12.42L10.5272 13.692C11.0826 13.8984 11.6726 14.0028 12.2672 13.9999C13.9118 13.9999 14.9876 13.2207 14.9924 12.0141C14.9964 11.098 14.2055 10.6996 13.5725 10.3808C13.1476 10.1668 12.7939 9.98864 12.7997 9.71376ZM17.8812 8.00006H19.3133L20.6693 14H19.1172L18.9137 13.1038H16.7599L16.4103 14H14.6474L17.1664 8.43996C17.2251 8.30817 17.3246 8.19587 17.452 8.11748C17.5794 8.03909 17.7289 7.9982 17.8812 8.00006ZM18.1272 9.62106L17.2433 11.8742H18.635L18.1272 9.62106Z" fill="#1434CB"/>
</svg>
